<svg version="1.0" xmlns="http://www.w3.org/2000/svg" width="500.000000pt" height="500.000000pt" viewBox="0 0 500.000000 500.000000" preserveAspectRatio="xMidYMid meet" className="loading-logo">
	<g transform="translate(0.000000,500.000000) scale(0.100000,-0.100000)" fill="#fff" stroke="none">
		<path className="path" d="M1862 4491 c2 -5 147 -430 323 -945 176 -515 322 -936 326 -936 3 0 148 404 324 898 175 493 326 918 336 945 l19 47 -666 0 c-382 0 -664 -4 -662 -9z" />
		<path className="path" d="M3158 3435 l-296 -926 267 -822 266 -822 598 -3 598 -2 -6 22 c-29 95 -1118 3456 -1124 3466 -4 6 -140 -404 -303 -913z" />
		<path className="path" d="M972 2613 c-309 -956 -562 -1741 -562 -1746 0 -4 268 -6 596 -5 l597 3 263 810 c145 446 263 819 264 830 1 24 -581 1845 -590 1845 -3 0 -259 -782 -568 -1737z" />
		<path className="path" d="M390 530 l0 -40 2105 0 2105 0 0 40 0 40 -2105 0 -2105 0 0 -40z" />
	</g>
</svg>
